/* XPM */
static char *mini[]={
"16 18 7 1",
". c None",
"a c #000000",
"c c #101010",
"# c #808080",
"b c #c0c0c0",
"e c #e0a008",
"d c #ffffff",
"......#aa#......",
".....#aaaa#.....",
".....ababaa.....",
".....acaada.....",
".....aeeeba.....",
".....aeeeba#....",
".....aeeddaa....",
"....a#ddddda#...",
"...#adddddd#a#..",
"...adddbddddaa..",
"...addbbddddaa#.",
"..abddbdddddaaa.",
"..ebddbdddddaaa.",
".eeedddddddeaae.",
"eeeeedddddbeeeee",
"eeeeedddddaeeeee",
".eeeeeddaaaeeee.",
"..eee#aaaaa#ee.."};
